<svg viewBox="0 0 101 18" fill="none" xmlns="http://www.w3.org/2000/svg">
<path d="M6.762 17.399C5.782 17.399 4.921 17.231 4.179 16.895C3.451 16.559 2.842 16.111 2.352 15.551C1.876 14.977 1.512 14.34 1.26 13.64C1.022 12.94 0.903 12.226 0.903 11.498V11.099C0.903 10.343 1.022 9.615 1.26 8.915C1.512 8.201 1.876 7.571 2.352 7.025C2.842 6.465 3.444 6.024 4.158 5.702C4.872 5.366 5.698 5.198 6.636 5.198C7.868 5.198 8.897 5.471 9.723 6.017C10.563 6.549 11.193 7.256 11.613 8.138C12.033 9.006 12.243 9.944 12.243 10.952V12.002H2.142V10.217H10.416L9.513 11.099C9.513 10.371 9.408 9.748 9.198 9.23C8.988 8.712 8.666 8.313 8.232 8.033C7.812 7.753 7.28 7.613 6.636 7.613C5.992 7.613 5.446 7.76 4.998 8.054C4.55 8.348 4.207 8.775 3.969 9.335C3.745 9.881 3.633 10.539 3.633 11.309C3.633 12.023 3.745 12.66 3.969 13.22C4.193 13.766 4.536 14.2 4.998 14.522C5.46 14.83 6.048 14.984 6.762 14.984C7.476 14.984 8.057 14.844 8.505 14.564C8.953 14.27 9.24 13.913 9.366 13.493H12.054C11.886 14.277 11.564 14.963 11.088 15.551C10.612 16.139 10.003 16.594 9.261 16.916C8.533 17.238 7.7 17.399 6.762 17.399Z" fill="#EAB52F"/>
<path d="M14.0935 12.38V9.818H22.5985V12.38H14.0935ZM32.614 17.399C31.298 17.399 30.136 17.182 29.128 16.748C28.134 16.3 27.294 15.705 26.608 14.963C25.936 14.207 25.425 13.36 25.075 12.422C24.739 11.47 24.571 10.483 24.571 9.461V8.999C24.571 8.033 24.739 7.088 25.075 6.164C25.411 5.24 25.901 4.407 26.545 3.665C27.203 2.923 28.008 2.335 28.96 1.901C29.926 1.453 31.032 1.229 32.278 1.229C33.622 1.229 34.812 1.481 35.848 1.985C36.884 2.475 37.717 3.168 38.347 4.064C38.977 4.946 39.348 5.975 39.46 7.151H36.457C36.359 6.493 36.114 5.933 35.722 5.471C35.33 4.995 34.833 4.631 34.231 4.379C33.643 4.127 32.992 4.001 32.278 4.001C31.564 4.001 30.913 4.127 30.325 4.379C29.751 4.631 29.261 4.988 28.855 5.45C28.449 5.912 28.134 6.465 27.91 7.109C27.7 7.753 27.595 8.467 27.595 9.251C27.595 10.105 27.714 10.868 27.952 11.54C28.19 12.212 28.526 12.786 28.96 13.262C29.394 13.724 29.919 14.081 30.535 14.333C31.151 14.571 31.844 14.69 32.614 14.69C33.636 14.69 34.532 14.48 35.302 14.06C36.072 13.626 36.632 13.066 36.982 12.38L36.457 14.795V10.847H39.208V14.249C38.55 15.243 37.654 16.02 36.52 16.58C35.386 17.126 34.084 17.399 32.614 17.399ZM32.131 11.435V9.209H40.489V11.435H32.131ZM47.8186 17.399C46.8386 17.399 45.9776 17.231 45.2356 16.895C44.5076 16.559 43.8986 16.111 43.4086 15.551C42.9326 14.977 42.5686 14.34 42.3166 13.64C42.0786 12.94 41.9596 12.226 41.9596 11.498V11.099C41.9596 10.343 42.0786 9.615 42.3166 8.915C42.5686 8.201 42.9326 7.571 43.4086 7.025C43.8986 6.465 44.5006 6.024 45.2146 5.702C45.9286 5.366 46.7546 5.198 47.6926 5.198C48.9246 5.198 49.9536 5.471 50.7796 6.017C51.6196 6.549 52.2496 7.256 52.6696 8.138C53.0896 9.006 53.2996 9.944 53.2996 10.952V12.002H43.1986V10.217H51.4726L50.5696 11.099C50.5696 10.371 50.4646 9.748 50.2546 9.23C50.0446 8.712 49.7226 8.313 49.2886 8.033C48.8686 7.753 48.3366 7.613 47.6926 7.613C47.0486 7.613 46.5026 7.76 46.0546 8.054C45.6066 8.348 45.2636 8.775 45.0256 9.335C44.8016 9.881 44.6896 10.539 44.6896 11.309C44.6896 12.023 44.8016 12.66 45.0256 13.22C45.2496 13.766 45.5926 14.2 46.0546 14.522C46.5166 14.83 47.1046 14.984 47.8186 14.984C48.5326 14.984 49.1136 14.844 49.5616 14.564C50.0096 14.27 50.2966 13.913 50.4226 13.493H53.1106C52.9426 14.277 52.6206 14.963 52.1446 15.551C51.6686 16.139 51.0596 16.594 50.3176 16.916C49.5896 17.238 48.7566 17.399 47.8186 17.399ZM59.8751 17.357C58.3071 17.357 57.0751 17.028 56.1791 16.37C55.2971 15.698 54.8351 14.774 54.7931 13.598H57.4181C57.4601 13.99 57.6771 14.347 58.0691 14.669C58.4611 14.991 59.0771 15.152 59.9171 15.152C60.6171 15.152 61.1701 15.026 61.5761 14.774C61.9961 14.522 62.2061 14.179 62.2061 13.745C62.2061 13.367 62.0451 13.066 61.7231 12.842C61.4151 12.618 60.8831 12.471 60.1271 12.401L59.1191 12.296C57.8451 12.156 56.8651 11.792 56.1791 11.204C55.4931 10.616 55.1501 9.832 55.1501 8.852C55.1501 8.068 55.3461 7.41 55.7381 6.878C56.1301 6.346 56.6691 5.947 57.3551 5.681C58.0551 5.401 58.8531 5.261 59.7491 5.261C61.1491 5.261 62.2831 5.569 63.1511 6.185C64.0191 6.801 64.4741 7.704 64.5161 8.894H61.8911C61.8631 8.502 61.6671 8.166 61.3031 7.886C60.9391 7.606 60.4141 7.466 59.7281 7.466C59.1121 7.466 58.6361 7.585 58.3001 7.823C57.9641 8.061 57.7961 8.369 57.7961 8.747C57.7961 9.111 57.9291 9.391 58.1951 9.587C58.4751 9.783 58.9231 9.916 59.5391 9.986L60.5471 10.091C61.8911 10.231 62.9411 10.602 63.6971 11.204C64.4671 11.806 64.8521 12.618 64.8521 13.64C64.8521 14.396 64.6421 15.054 64.2221 15.614C63.8161 16.16 63.2421 16.587 62.5001 16.895C61.7581 17.203 60.8831 17.357 59.8751 17.357ZM72.2195 17.147C71.1695 17.147 70.3015 17.014 69.6155 16.748C68.9435 16.468 68.4395 16.006 68.1035 15.362C67.7675 14.704 67.5995 13.822 67.5995 12.716L67.6205 2.384H70.3505L70.3295 12.905C70.3295 13.465 70.4765 13.899 70.7705 14.207C71.0785 14.501 71.5125 14.648 72.0725 14.648H73.8575V17.147H72.2195ZM65.7935 7.739V5.597H73.8575V7.739H65.7935ZM83.1754 17V13.619H82.6924V9.86C82.6924 9.202 82.5314 8.712 82.2094 8.39C81.8874 8.068 81.3904 7.907 80.7184 7.907C80.3684 7.907 79.9484 7.914 79.4584 7.928C78.9684 7.942 78.4714 7.963 77.9674 7.991C77.4774 8.005 77.0364 8.026 76.6444 8.054V5.576C76.9664 5.548 77.3304 5.52 77.7364 5.492C78.1424 5.464 78.5554 5.45 78.9754 5.45C79.4094 5.436 79.8154 5.429 80.1934 5.429C81.3694 5.429 82.3424 5.583 83.1124 5.891C83.8964 6.199 84.4844 6.682 84.8764 7.34C85.2824 7.998 85.4854 8.859 85.4854 9.923V17H83.1754ZM79.5004 17.294C78.6744 17.294 77.9464 17.147 77.3164 16.853C76.7004 16.559 76.2174 16.139 75.8674 15.593C75.5314 15.047 75.3634 14.389 75.3634 13.619C75.3634 12.779 75.5664 12.093 75.9724 11.561C76.3924 11.029 76.9734 10.63 77.7154 10.364C78.4714 10.098 79.3534 9.965 80.3614 9.965H83.0074V11.708H80.3194C79.6474 11.708 79.1294 11.876 78.7654 12.212C78.4154 12.534 78.2404 12.954 78.2404 13.472C78.2404 13.99 78.4154 14.41 78.7654 14.732C79.1294 15.054 79.6474 15.215 80.3194 15.215C80.7254 15.215 81.0964 15.145 81.4324 15.005C81.7824 14.851 82.0694 14.599 82.2934 14.249C82.5314 13.885 82.6644 13.395 82.6924 12.779L83.4064 13.598C83.3364 14.396 83.1404 15.068 82.8184 15.614C82.5104 16.16 82.0764 16.58 81.5164 16.874C80.9704 17.154 80.2984 17.294 79.5004 17.294ZM82.2094 3.77C81.8174 3.77 81.4814 3.721 81.2014 3.623C80.9354 3.511 80.6904 3.385 80.4664 3.245C80.2564 3.105 80.0324 2.979 79.7944 2.867C79.5704 2.755 79.3114 2.699 79.0174 2.699C78.6674 2.699 78.3594 2.776 78.0934 2.93C77.8274 3.07 77.5894 3.252 77.3794 3.476L76.9384 1.502C77.1764 1.25 77.4634 1.033 77.7994 0.850999C78.1494 0.654999 78.5624 0.556999 79.0384 0.556999C79.4444 0.556999 79.7804 0.612999 80.0464 0.724999C80.3124 0.836999 80.5574 0.963 80.7814 1.103C81.0054 1.243 81.2294 1.369 81.4534 1.481C81.6774 1.579 81.9434 1.628 82.2514 1.628C82.6014 1.628 82.9094 1.558 83.1754 1.418C83.4554 1.264 83.6934 1.075 83.8894 0.850999L84.3304 2.825C84.1064 3.091 83.8194 3.315 83.4694 3.497C83.1194 3.679 82.6994 3.77 82.2094 3.77ZM94.0931 17.399C93.0851 17.399 92.1961 17.238 91.4261 16.916C90.6561 16.594 90.0051 16.16 89.4731 15.614C88.9411 15.054 88.5351 14.424 88.2551 13.724C87.9891 13.024 87.8561 12.296 87.8561 11.54V11.099C87.8561 10.315 87.9961 9.573 88.2761 8.873C88.5701 8.159 88.9831 7.529 89.5151 6.983C90.0611 6.423 90.7191 5.989 91.4891 5.681C92.2591 5.359 93.1271 5.198 94.0931 5.198C95.0591 5.198 95.9271 5.359 96.6971 5.681C97.4671 5.989 98.1181 6.423 98.6501 6.983C99.1961 7.529 99.6091 8.159 99.8891 8.873C100.169 9.573 100.309 10.315 100.309 11.099V11.54C100.309 12.296 100.169 13.024 99.8891 13.724C99.6231 14.424 99.2241 15.054 98.6921 15.614C98.1601 16.16 97.5091 16.594 96.7391 16.916C95.9691 17.238 95.0871 17.399 94.0931 17.399ZM94.0931 14.9C94.8071 14.9 95.4091 14.746 95.8991 14.438C96.3891 14.116 96.7601 13.689 97.0121 13.157C97.2641 12.611 97.3901 11.995 97.3901 11.309C97.3901 10.609 97.2571 9.993 96.9911 9.461C96.7391 8.915 96.3611 8.488 95.8571 8.18C95.3671 7.858 94.7791 7.697 94.0931 7.697C93.4071 7.697 92.8121 7.858 92.3081 8.18C91.8181 8.488 91.4401 8.915 91.1741 9.461C90.9081 9.993 90.7751 10.609 90.7751 11.309C90.7751 11.995 90.9011 12.611 91.1531 13.157C91.4191 13.689 91.7971 14.116 92.2871 14.438C92.7771 14.746 93.3791 14.9 94.0931 14.9Z" fill="#4B4B4B"/>
</svg>
